<svg id="Layer_1" viewBox="0 0 24 24" xmlns="http://www.w3.org/2000/svg" data-name="Layer 1"><path d="m11.984 4.984h2s0 3-3 3h-2s0-3 3-3zm12 13.5v2.803s-3.617-2.41-5.021-3.255c-.043 1.597-.176 2.972-.585 4.005l-.841 2.122-3.878-3.878c-1.344 1.556-3.886 3.703-7.676 3.703h-2.648l1.36-2.268c.039-.067 1.289-2.257 1.289-5.232 0-1.609-.747-2.869-1.209-3.5h-.291c-2 0-2.5.476-2.5 1v1c-3.592-2.245-1.984-6.092 2-6.856.204-4.507 3.921-8.148 8.5-8.144 2.437-.073 4.41 1.333 6.5 1.5 1.251.075 2.93-.99 4-1.495v2.428c.045 2.173-.929 3.178-1 5.067 0 .163.16.559.329.979.625 1.551 1.671 4.148 1.671 10.021zm-3.097-2.794c-.248-3.354-.921-5.023-1.357-6.106-.293-.728-.546-1.355-.546-2.1.003-1.284.314-2.168.598-3.03-2.61.283-4.642-1.435-7.098-1.47-2.87 0-5.231 2.212-5.476 5.02l2.976 2.48-1.874 2.271c1.165 1.972.995 5.711.287 7.766 3.837-2.037 3.413-3.001 4.741-5.004l2.814 2.814c.052-1.439.025-3.753.031-5.274 1.56.77 3.398 1.679 4.903 2.633z"/></svg>